<?xml version="1.0" encoding="UTF-8" standalone="no"?>
<!-- Uploaded to: SVG Repo, www.svgrepo.com, Generator: SVG Repo Mixer Tools -->

<svg
   fill="#000000"
   version="1.1"
   id="Layer_1"
   width="80"
   height="80"
   viewBox="0 0 25.6 22.6"
   enable-background="new 0 0 256 226"
   xml:space="preserve"
   sodipodi:docname="publico-alvo.svg"
   inkscape:version="1.1.2 (b8e25be8, 2022-02-05)"
   xmlns:inkscape="http://www.inkscape.org/namespaces/inkscape"
   xmlns:sodipodi="http://sodipodi.sourceforge.net/DTD/sodipodi-0.dtd"
   xmlns="http://www.w3.org/2000/svg"
   xmlns:svg="http://www.w3.org/2000/svg"><defs
   id="defs7" /><sodipodi:namedview
   id="namedview5"
   pagecolor="#ffffff"
   bordercolor="#666666"
   borderopacity="1.0"
   inkscape:pageshadow="2"
   inkscape:pageopacity="0.0"
   inkscape:pagecheckerboard="0"
   showgrid="false"
   fit-margin-top="0"
   fit-margin-left="0"
   fit-margin-right="0"
   fit-margin-bottom="0"
   inkscape:zoom="0.89875"
   inkscape:cx="-39.499305"
   inkscape:cy="-17.246175"
   inkscape:window-width="1168"
   inkscape:window-height="873"
   inkscape:window-x="135"
   inkscape:window-y="25"
   inkscape:window-maximized="0"
   inkscape:current-layer="Layer_1" />
<path
   d="m 2.7833336,0.6216488 c 0,-1.171799 0.83353,-2.1216488 1.8616,-2.1216488 1.028173,0 1.861601,0.9498498 1.861601,2.1216488 0,1.171799 -0.83353,2.12165 -1.861601,2.12165 -1.02807,1.15e-4 -1.8616,-0.949851 -1.8616,-2.12165 z m 4.173337,2.681325 h -4.664312 c -1.268326,0 -2.33215496,1.1890499 -2.29121496,2.6579375 v 6.5283127 c 0,0.512901 0.347735,0.932599 0.818291,0.932599 0.45003496,0 0.81829096,-0.419698 0.81829096,-0.932599 V 6.4970838 c 0,-0.139861 0.1023,-0.256451 0.225018,-0.256451 0.122718,0 0.225017,0.11659 0.225017,0.256451 V 22.654499 c 0,0.792739 0.511394,1.445501 1.166129,1.445501 0.654633,0 1.166027,-0.652878 1.166027,-1.445501 v -9.209521 c 0,-0.13986 0.1023,-0.25645 0.225017,-0.25645 0.122719,0 0.225018,0.11659 0.225018,0.25645 v 9.209521 c 0,0.792739 0.511394,1.445501 1.166129,1.445501 0.654734,0 1.166128,-0.652878 1.166128,-1.445501 V 6.4970838 c 0,-0.139861 0.1023,-0.256451 0.225018,-0.256451 0.122718,0 0.225017,0.11659 0.225017,0.256451 v 5.9687532 c 0,0.5129 0.347736,0.932598 0.818291,0.932598 0.450035,0 0.818293,-0.419698 0.818293,-0.932598 V 5.9609113 c 0,-1.4688876 -1.04331,-2.6579375 -2.332157,-2.6579375 z m 5.5610304,-2.999022 c 0,-0.996278 0.708678,-1.8039518 1.582842,-1.8039518 0.874165,0 1.582843,0.8076738 1.582843,1.8039518 0,0.996278 -0.708678,1.803952 -1.582843,1.803952 -0.874164,0 -1.582842,-0.807674 -1.582842,-1.803952 z m 3.548367,2.279687 h -3.965793 c -1.078457,0 -1.982895,1.0109823 -1.948051,2.2598898 v 5.5505594 c 0,0.436139 0.295723,0.792969 0.695776,0.792969 0.382682,0 0.695777,-0.35683 0.695777,-0.792969 V 5.2994661 c 0,-0.1189049 0.08695,-0.2180118 0.19129,-0.2180118 0.10433,0 0.19129,0.099106 0.19129,0.2180118 V 19.037102 c 0,0.673949 0.434796,1.228994 0.991397,1.228994 0.556601,0 0.991397,-0.555045 0.991397,-1.228994 v -7.830246 c 0,-0.118905 0.08696,-0.218011 0.19129,-0.218011 0.104331,0 0.19129,0.09911 0.19129,0.218011 v 7.830246 c 0,0.673949 0.434899,1.228994 0.991398,1.228994 0.556499,0 0.991397,-0.555045 0.991397,-1.228994 V 5.2994661 c 0,-0.1189049 0.08696,-0.2180118 0.191291,-0.2180118 0.104331,0 0.19129,0.099106 0.19129,0.2180118 v 5.0748229 c 0,0.43614 0.295723,0.79297 0.695776,0.79297 0.382682,0 0.695777,-0.35683 0.695777,-0.79297 V 4.8435286 C 18.048863,3.5946211 17.161796,2.5836388 16.066068,2.5836388 Z m 4.977203,-2.597385 c 0,-0.8207568 0.583826,-1.4861378 1.304085,-1.4861378 0.720157,0 1.303984,0.665381 1.303984,1.4861378 0,0.820757 -0.583827,1.486139 -1.303984,1.486139 -0.720259,0 -1.304085,-0.665382 -1.304085,-1.486139 z m 2.923296,1.878051 h -3.267273 c -0.888489,0 -1.633637,0.832914 -1.604989,1.8618412 v 4.5729208 c 0,0.359262 0.243608,0.653226 0.573159,0.653226 0.315228,0 0.57316,-0.293964 0.57316,-0.653226 V 4.1018486 c 0,-0.097949 0.07162,-0.1796889 0.157664,-0.1796889 0.08595,0 0.157665,0.081624 0.157665,0.1796889 V 15.419821 c 0,0.555275 0.358199,1.012602 0.816767,1.012602 0.458568,0 0.816768,-0.457327 0.816768,-1.012602 V 8.9687328 c 0,-0.09795 0.07162,-0.17969 0.157665,-0.17969 0.08594,0 0.157665,0.08162 0.157665,0.17969 v 6.4510882 c 0,0.555275 0.3583,1.012602 0.816767,1.012602 0.458568,0 0.816767,-0.457327 0.816767,-1.012602 V 4.1018486 c 0,-0.097949 0.07162,-0.1796889 0.157665,-0.1796889 0.08604,0 0.157664,0.081624 0.157664,0.1796889 v 4.1808942 c 0,0.359262 0.243609,0.653225 0.57316,0.653225 0.315228,0 0.573159,-0.293963 0.573159,-0.653225 V 3.726146 C 25.600203,2.6972188 24.86938,1.8643048 23.966567,1.8643048 Z"
   id="path2"
   style="stroke-width:0.108451" />
</svg>
