<?xml version="1.0" encoding="UTF-8" standalone="no"?>
<svg
   width="80"
   height="80"
   version="1.1"
   id="_x32_"
   viewBox="0 0 512 512"
   xml:space="preserve"
   fill="#000000"
   sodipodi:docname="dicas.svg"
   inkscape:version="1.1.2 (b8e25be8, 2022-02-05)"
   xmlns:inkscape="http://www.inkscape.org/namespaces/inkscape"
   xmlns:sodipodi="http://sodipodi.sourceforge.net/DTD/sodipodi-0.dtd"
   xmlns="http://www.w3.org/2000/svg"
   xmlns:svg="http://www.w3.org/2000/svg"><defs
     id="defs23" /><sodipodi:namedview
     id="namedview21"
     pagecolor="#ffffff"
     bordercolor="#666666"
     borderopacity="1.0"
     inkscape:pageshadow="2"
     inkscape:pageopacity="0.0"
     inkscape:pagecheckerboard="0"
     showgrid="false"
     fit-margin-top="0"
     fit-margin-left="0"
     fit-margin-right="0"
     fit-margin-bottom="0"
     inkscape:zoom="10.9125"
     inkscape:cx="12.508591"
     inkscape:cy="40.687285"
     inkscape:window-width="2240"
     inkscape:window-height="1118"
     inkscape:window-x="0"
     inkscape:window-y="25"
     inkscape:window-maximized="1"
     inkscape:current-layer="_x32_" /><g
     id="SVGRepo_bgCarrier"
     stroke-width="0"
     transform="translate(-13.307974)" /><g
     id="SVGRepo_tracerCarrier"
     stroke-linecap="round"
     stroke-linejoin="round"
     transform="translate(-13.307974)" /><g
     id="SVGRepo_iconCarrier"
     transform="matrix(1.0548337,0,0,1,-14.037701,0)"> <style
   type="text/css"
   id="style11">  .st0{fill:#000000;}  </style> <g
   id="g17"> <path
   class="st0"
   d="m 421.073,221.719 c -0.578,11.719 -9.469,26.188 -23.797,40.094 v 183.25 c -0.016,4.719 -1.875,8.719 -5.016,11.844 -3.156,3.063 -7.25,4.875 -12.063,4.906 H 81.558 c -4.781,-0.031 -8.891,-1.844 -12.047,-4.906 -3.141,-3.125 -4.984,-7.125 -5,-11.844 V 152.219 c 0.016,-4.703 1.859,-8.719 5,-11.844 3.156,-3.063 7.266,-4.875 12.047,-4.906 h 158.609 c 12.828,-16.844 27.781,-34.094 44.719,-49.906 0.078,-0.094 0.141,-0.188 0.219,-0.281 H 81.558 c -18.75,-0.016 -35.984,7.531 -48.25,19.594 -12.328,12.063 -20.016,28.938 -20,47.344 v 292.844 c -0.016,18.406 7.672,35.313 20,47.344 12.265,12.061 29.5,19.592 48.25,19.592 h 298.641 c 18.781,0 36.016,-7.531 48.281,-19.594 12.297,-12.031 20,-28.938 19.984,-47.344 V 203.469 c 0,0 -0.125,-0.156 -0.328,-0.313 -7.766,6.657 -16.813,13 -27.063,18.563 z"
   id="path13" /> <path
   class="st0"
   d="m 498.058,0 c 0,0 -15.688,23.438 -118.156,58.109 -104.485,35.36 -168.798,179.204 -168.798,179.204 -15.484,29.469 -76.688,151.906 -76.688,151.906 -16.859,31.625 14.031,50.313 32.156,17.656 34.734,-62.688 57.156,-119.969 109.969,-121.594 77.047,-2.375 129.734,-69.656 113.156,-66.531 -21.813,9.5 -69.906,0.719 -41.578,-3.656 68,-5.453 109.906,-56.563 96.25,-60.031 -24.109,9.281 -46.594,0.469 -51,-2.188 C 513.386,138.281 498.058,0 498.058,0 Z"
   id="path15" /> </g> </g></svg>
