<?xml version="1.0" encoding="UTF-8" standalone="no"?>
<!-- Uploaded to: SVG Repo, www.svgrepo.com, Generator: SVG Repo Mixer Tools -->

<svg
   width="79.492996"
   height="80.508713"
   viewBox="-0.5 0 2.4841561 2.5158973"
   fill="none"
   version="1.1"
   id="svg304"
   sodipodi:docname="financiamento.svg"
   inkscape:version="1.1.2 (b8e25be8, 2022-02-05)"
   xmlns:inkscape="http://www.inkscape.org/namespaces/inkscape"
   xmlns:sodipodi="http://sodipodi.sourceforge.net/DTD/sodipodi-0.dtd"
   xmlns="http://www.w3.org/2000/svg"
   xmlns:svg="http://www.w3.org/2000/svg">
  <defs
     id="defs308" />
  <sodipodi:namedview
     id="namedview306"
     pagecolor="#ffffff"
     bordercolor="#666666"
     borderopacity="1.0"
     inkscape:pageshadow="2"
     inkscape:pageopacity="0.0"
     inkscape:pagecheckerboard="0"
     showgrid="false"
     fit-margin-top="0"
     fit-margin-left="0"
     fit-margin-right="0"
     fit-margin-bottom="0"
     inkscape:zoom="1.1675"
     inkscape:cx="339.61456"
     inkscape:cy="309.20771"
     inkscape:window-width="2240"
     inkscape:window-height="1118"
     inkscape:window-x="0"
     inkscape:window-y="25"
     inkscape:window-maximized="1"
     inkscape:current-layer="svg304" />
  <g
     id="g392"
     transform="matrix(0.11554215,0,0,0.12902017,-0.64442769,-0.41544108)">
    <path
       d="M 12.7003,17.1099 V 18.22 c 0,0.088 -0.0174,0.175 -0.0511,0.2563 -0.0336,0.0813 -0.083,0.1553 -0.1452,0.2175 -0.0622,0.0623 -0.1361,0.1114 -0.2173,0.1451 -0.0813,0.0336 -0.1685,0.051 -0.2565,0.051 -0.0879,0 -0.1751,-0.0174 -0.2564,-0.051 C 11.6925,18.8052 11.6187,18.7561 11.5565,18.6938 11.4943,18.6316 11.4449,18.5576 11.4113,18.4763 11.3776,18.395 11.3602,18.308 11.3602,18.22 V 17.0801 C 10.9165,17.0072 10.4917,16.8468 10.1106,16.6082 9.72943,16.3695 9.39958,16.0573 9.14023,15.6899 9.04577,15.57 8.99311,15.4226 8.99023,15.27 8.99148,15.1842 9.00997,15.0995 9.04459,15.021 9.0792,14.9425 9.12927,14.8718 9.19177,14.813 9.25428,14.7542 9.32794,14.7087 9.40842,14.679 9.4889,14.6492 9.57455,14.6359 9.66025,14.6399 c 0.08479,2e-4 0.16858,0.0183 0.24606,0.0527 0.07748,0.0345 0.14689,0.0847 0.20389,0.1475 0.3224,0.4175 0.7555,0.7362 1.25,0.9199 V 13.21 C 10.0302,12.69 9.36023,11.9099 9.36023,10.8999 9.38027,10.3592 9.5928,9.84343 9.9595,9.44556 10.3262,9.04769 10.8229,8.79397 11.3602,8.72998 v -1.1001 c 0,-0.08798 0.0174,-0.17506 0.0511,-0.25634 0.0336,-0.08129 0.083,-0.15507 0.1452,-0.21729 0.0622,-0.06222 0.136,-0.11159 0.2173,-0.14526 0.0813,-0.03367 0.1685,-0.05103 0.2564,-0.05103 0.088,0 0.1752,0.01736 0.2565,0.05103 0.0812,0.03367 0.1551,0.08304 0.2173,0.14526 0.0622,0.06222 0.1116,0.136 0.1452,0.21729 0.0337,0.08128 0.0511,0.16836 0.0511,0.25634 v 1.09009 c 0.3721,0.05831 0.7286,0.19106 1.0482,0.39038 0.3196,0.19932 0.5957,0.46102 0.8117,0.76953 0.0953,0.11247 0.1515,0.25302 0.16,0.40012 0.0027,0.0862 -0.0118,0.1719 -0.0426,0.2525 -0.0309,0.0805 -0.0774,0.1542 -0.137,0.2165 -0.0596,0.0624 -0.131,0.1123 -0.21,0.1468 -0.079,0.0345 -0.1641,0.0529 -0.2504,0.0542 -0.0902,-0.0025 -0.1789,-0.0243 -0.26,-0.064 -0.0811,-0.0397 -0.1527,-0.0963 -0.21,-0.166 -0.2384,-0.2979 -0.5527,-0.5258 -0.9099,-0.6599 v 2.25 l 0.25,0.0998 c 1.27,0.5 2.06,1.2201 2.06,2.3601 -0.0149,0.6108 -0.2622,1.1929 -0.6914,1.6277 -0.4292,0.4348 -1.0081,0.6894 -1.6186,0.7122 z M 11.3602,11.73 v -1.6301 c -0.1614,0.0585 -0.3003,0.1663 -0.3972,0.3081 -0.0968,0.1417 -0.1468,0.3103 -0.1427,0.4819 -0.003,0.1777 0.0466,0.3525 0.1427,0.5019 0.0961,0.1495 0.2343,0.2671 0.3972,0.3382 z m 2.19,3.07 c 0,-0.48 -0.3299,-0.77 -0.8499,-1 v 2 c 0.2384,-0.0361 0.4558,-0.1573 0.612,-0.341 0.1562,-0.1838 0.2407,-0.4178 0.2379,-0.659 z"
       fill="#000000"
       id="path300" />
    <path
       d="M 18,3.96997 H 6 C 4.93913,3.96997 3.92172,4.39146 3.17157,5.1416 2.42142,5.89175 2,6.9091 2,7.96997 V 17.97 c 0,1.0608 0.42142,2.0782 1.17157,2.8283 C 3.92172,21.5485 4.93913,21.97 6,21.97 h 12 c 1.0609,0 2.0783,-0.4215 2.8284,-1.1717 C 21.5786,20.0482 22,19.0308 22,17.97 V 7.96997 C 22,6.9091 21.5786,5.89175 20.8284,5.1416 20.0783,4.39146 19.0609,3.96997 18,3.96997 Z"
       stroke="#000000"
       stroke-width="1.5"
       stroke-linecap="round"
       stroke-linejoin="round"
       id="path302" />
  </g>
</svg>
